<?xml version="1.0" standalone="no"?>
<!DOCTYPE svg PUBLIC "-//W3C//DTD SVG 20010904//EN"
 "http://www.w3.org/TR/2001/REC-SVG-20010904/DTD/svg10.dtd">
<svg version="1.0" xmlns="http://www.w3.org/2000/svg"
 width="700.000000pt" height="700.000000pt" viewBox="0 0 700.000000 700.000000"
 preserveAspectRatio="xMidYMid meet">
<metadata>
Created by potrace 1.11, written by Peter Selinger 2001-2013
</metadata>
<g transform="translate(0.000000,700.000000) scale(0.100000,-0.100000)"
fill="#000000" stroke="none">
<path d="M4320 6773 c-46 -7 -114 -36 -160 -66 -25 -17 -448 -434 -940 -926
-953 -954 -938 -937 -968 -1062 -13 -51 -9 -176 7 -227 28 -93 72 -144 492
-564 231 -231 418 -422 416 -424 -2 -2 -530 -4 -1173 -4 -1253 0 -1214 1
-1320 -50 -56 -28 -141 -109 -177 -170 -62 -107 -60 -52 -60 -1415 0 -682 3
-1256 6 -1275 29 -173 168 -320 337 -359 30 -7 475 -11 1301 -11 1232 0 1258
0 1322 20 157 49 277 181 306 336 5 28 10 545 10 1199 0 633 0 1158 1 1167 0
11 79 -62 203 -185 194 -194 267 -254 332 -272 17 -4 37 -10 45 -13 8 -2 51
-6 95 -8 94 -3 170 18 250 71 73 50 1816 1798 1854 1861 83 137 78 330 -11
469 -13 19 -430 441 -928 939 -966 965 -936 936 -1061 965 -43 10 -129 12
-179 4z"/>
<path d="M3939 1748 c-5 -14 -4 -201 1 -208 4 -7 176 -9 495 -8 l489 3 0 105
0 105 -492 3 c-271 1 -492 1 -493 0z"/>
<path d="M3941 1310 c-4 -3 -6 -52 -6 -110 l1 -105 601 -3 601 -2 4 47 c1 27
1 77 -2 113 l-5 65 -593 0 c-327 0 -597 -2 -601 -5z"/>
<path d="M3937 866 c-3 -9 -1 -191 2 -206 1 -3 321 -6 711 -6 l710 0 0 112 0
111 -709 0 c-510 0 -711 -3 -714 -11z"/>
<path d="M5579 872 c-6 -41 -2 -205 6 -210 12 -8 172 -12 197 -6 14 4 17 21
17 112 l1 108 -110 1 c-61 1 -110 -2 -111 -5z"/>
</g>
</svg>
