<svg xmlns="http://www.w3.org/2000/svg" height="512" viewBox="0 0 64 64" width="512">
  <rect fill="#ff9800" height="28" rx="3.029" width="28" x="5" y="33" data-original="#FFD257" class="active-path" data-old_color="#ffd257"/>
  <path d="M7 39.029A3.029 3.029 0 0110.029 36h21.942a2.984 2.984 0 011.029.192v-.163A3.029 3.029 0 0029.971 33H8.029A3.029 3.029 0 005 36.029v21.942a3.02 3.02 0 002 2.837z" fill="#ffe8ae" data-original="#FFE8AE"/>
  <path d="M30 33v21.971A3.029 3.029 0 0126.971 58H5a3.027 3.027 0 003.026 3h21.945A3.029 3.029 0 0033 57.971V36.029A3.027 3.027 0 0030 33z" fill="#f89c5b" data-original="#F89C5B"/>
  <rect fill="#2f4858" height="28.284" rx="2.994" transform="rotate(-45 40.238 21.77)" width="28.284" x="26.098" y="7.618" data-original="#35D7FD" data-old_color="#35d7fd"/>
  <path d="M22.357 22.643L38.123 6.877a2.994 2.994 0 014.234 0l15.766 15.766a2.945 2.945 0 01.461.617 2.986 2.986 0 00-.461-3.617L42.357 3.877a2.994 2.994 0 00-4.234 0L22.357 19.643a2.986 2.986 0 00-.457 3.617 2.945 2.945 0 01.457-.617z" fill="#bbf9ff" data-original="#BBF9FF"/>
  <path d="M57.98 19.5L42.357 35.123a2.994 2.994 0 01-4.234 0L22.5 19.5l-.143.143a2.994 2.994 0 000 4.234l15.766 15.766a2.994 2.994 0 004.234 0l15.766-15.766a2.994 2.994 0 000-4.234z" fill="#03b3e2" data-original="#03B3E2"/>
  <circle cx="40" cy="22" fill="#ff9800" r="3" data-original="#E94561" data-old_color="#e94561"/>
  <circle cx="12" cy="54" fill="#03b3e2" r="2" data-original="#03B3E2"/>
  <circle cx="19" cy="47" fill="#03b3e2" r="2" data-original="#03B3E2"/>
  <circle cx="26" cy="40" fill="#03b3e2" r="2" data-original="#03B3E2"/>
  <path d="M29 49.314v6.608A1.078 1.078 0 0127.922 57h-4.806a1.078 1.078 0 01-.871-1.712l4.806-6.608a1.078 1.078 0 011.949.634zM35.227 12.773l3.851-3.851a1.3 1.3 0 011.844 0l3.851 3.851A1.3 1.3 0 0143.851 15h-7.7a1.3 1.3 0 01-.924-2.227z" fill="#fff" data-original="#FFF"/>
  <g fill="#895e7a">
    <path d="M36 56h13v2H36zM51 56h2v2h-2zM36 52h11v2H36zM36 48h9v2h-9z" data-original="#895E7A"/>
  </g>
  <path d="M58.83 18.937L43.063 3.17a4 4 0 00-5.647 0L21.649 18.937a4 4 0 000 5.647L29.065 32H8.029A4.034 4.034 0 004 36.029v21.942A4.034 4.034 0 008.029 62h21.942A4.034 4.034 0 0034 57.971V36.935l3.416 3.416a4 4 0 005.647 0L58.83 24.584a4 4 0 000-5.647zM32 57.971A2.031 2.031 0 0129.971 60H8.029A2.031 2.031 0 016 57.971V36.029A2.031 2.031 0 018.029 34h21.942A2.031 2.031 0 0132 36.029zm25.416-34.8L41.649 38.937a2 2 0 01-2.819 0L23.063 23.17a2 2 0 010-2.819L38.83 4.584a2 2 0 012.819 0l15.767 15.767a2 2 0 010 2.819z" data-original="#000000"/>
  <path d="M40 18a4 4 0 104 4 4 4 0 00-4-4zm0 6a2 2 0 112-2 2 2 0 01-2 2zM12 51a3 3 0 103 3 3 3 0 00-3-3zm0 4a1 1 0 111-1 1 1 0 01-1 1zM22 47a3 3 0 10-3 3 3 3 0 003-3zm-3 1a1 1 0 111-1 1 1 0 01-1 1zM26 43a3 3 0 10-3-3 3 3 0 003 3zm0-4a1 1 0 11-1 1 1 1 0 011-1zM28 56h-7v2h8a1 1 0 001-1V46h-2zM39.293 7.293l-7 7 1.414 1.414L40 9.414l6.293 6.293 1.414-1.414-7-7a1 1 0 00-1.414 0zM36 56h13v2H36zM51 56h2v2h-2zM36 52h11v2H36zM36 48h9v2h-9z" data-original="#000000"/>
</svg>
